<svg xmlns="http://www.w3.org/2000/svg" viewBox="0 0 256 256" width="100%" height="100%">
  <defs>
    <linearGradient id="a" x1="10%" y1="0%" x2="90%" y2="100%">
      <stop offset="0%" stop-color="#41D1FF"/>
      <stop offset="100%" stop-color="#BD34FE"/>
    </linearGradient>
    <linearGradient id="b" x1="0%" y1="0%" x2="100%" y2="100%">
      <stop offset="0%" stop-color="#FFDF1B"/>
      <stop offset="100%" stop-color="#FF512F"/>
    </linearGradient>
  </defs>
  <path d="M256 36.3L142 233c-3 5-9 8-15 8s-12-3-15-8L1 36.3c-4-7-1-16 6-20 7-4 16-1 20 6l99 171.3L229 22.3c4-7 13-10 20-6 7 4 10 13 7 20z" fill="url(#a)"/>
  <path d="M172.6 9L113 148l-29-58-48 7c-6 1-10 6-10 12 0 6 4 11 10 11h45c4 0 7-2 9-5l19-37 31 62c2 3 5 5 8 5h44c6 0 11-5 11-11 0-4-2-8-6-10l-45-90 32-65c3-6-1-14-8-14h-38z" fill="url(#b)"/>
</svg>
